<svg width="110" height="110" viewBox="0 0 110 110" fill="none" xmlns="http://www.w3.org/2000/svg">
<g clip-path="url(#clip0_2216_164)">
<path fill-rule="evenodd" clip-rule="evenodd" d="M98.0539 62.183L67.4299 44.495C64.5259 42.823 60.2469 42.669 57.6949 44.143L57.3319 44.352V36.729C57.3379 36.6595 57.3379 36.5895 57.3319 36.52L55.7699 28.391V2.398C55.7699 1.034 54.3289 0 52.4699 0C50.6109 0 49.1149 1.034 49.1149 2.398V28.391L47.4759 36.52C47.47 36.5895 47.47 36.6595 47.4759 36.729V46.706C47.4759 46.9977 47.5918 47.2775 47.7981 47.4838C48.0044 47.6901 48.2842 47.806 48.5759 47.806C48.8677 47.806 49.1475 47.6901 49.3538 47.4838C49.56 47.2775 49.6759 46.9977 49.6759 46.706V36.806L51.2379 28.677C51.2439 28.6075 51.2439 28.5375 51.2379 28.468V2.508C51.5895 2.30633 51.9877 2.20021 52.3929 2.20021C52.7982 2.20021 53.1964 2.30633 53.5479 2.508V28.391C53.3336 28.5436 53.0836 28.6383 52.8219 28.666C52.5302 28.6893 52.2597 28.8276 52.0699 29.0504C51.8801 29.2732 51.7866 29.5623 51.8099 29.854C51.8333 30.1457 51.9715 30.4163 52.1943 30.606C52.4171 30.7958 52.7062 30.8893 52.9979 30.866H53.1739C53.4363 30.8247 53.6942 30.7584 53.9439 30.668L55.1099 36.795C55.0549 37.191 54.0099 37.895 52.3929 37.895C52.2024 37.9063 52.0114 37.9063 51.8209 37.895C51.6765 37.8798 51.5304 37.8933 51.3912 37.9345C51.2519 37.9758 51.1222 38.0441 51.0093 38.1355C50.8964 38.2269 50.8027 38.3397 50.7334 38.4673C50.6641 38.595 50.6206 38.735 50.6054 38.8795C50.5903 39.024 50.6037 39.17 50.645 39.3092C50.6862 39.4485 50.7545 39.5783 50.8459 39.6911C50.9374 39.804 51.0501 39.8978 51.1778 39.9671C51.3054 40.0364 51.4455 40.0798 51.5899 40.095C51.8573 40.112 52.1255 40.112 52.3929 40.095C53.332 40.1029 54.2631 39.9234 55.1319 39.567V45.683L23.4959 63.888V55.462C23.5017 55.3925 23.5017 55.3225 23.4959 55.253L21.9339 47.124V21.142C21.9229 19.8 20.4819 18.7 18.5679 18.7C16.6539 18.7 15.2679 19.734 15.2679 21.109V47.124L13.7059 55.253C13.7 55.3225 13.7 55.3925 13.7059 55.462V66.792C13.7059 67.0837 13.8218 67.3635 14.0281 67.5698C14.2344 67.7761 14.5142 67.892 14.8059 67.892C15.0977 67.892 15.3775 67.7761 15.5838 67.5698C15.79 67.3635 15.9059 67.0837 15.9059 66.792V55.561L17.4679 47.432C17.4739 47.3625 17.4739 47.2925 17.4679 47.223V21.241C17.7956 21.0307 18.1787 20.9234 18.5679 20.933C18.9755 20.9142 19.3789 21.0218 19.7229 21.241V47.124C19.5073 47.2741 19.2579 47.3685 18.9969 47.399C18.8525 47.4106 18.7117 47.4505 18.5827 47.5164C18.4536 47.5824 18.3389 47.6731 18.2449 47.7834C18.1509 47.8937 18.0796 48.0215 18.035 48.1594C17.9904 48.2972 17.9734 48.4425 17.9849 48.587C17.9965 48.7315 18.0364 48.8722 18.1023 49.0013C18.1683 49.1303 18.259 49.2451 18.3693 49.339C18.4797 49.433 18.6074 49.5043 18.7453 49.5489C18.8832 49.5935 19.0285 49.6106 19.1729 49.599H19.3489C19.608 49.5592 19.8624 49.4928 20.1079 49.401L21.2849 55.528C21.2189 55.924 20.1849 56.628 18.5679 56.628C18.3774 56.6393 18.1864 56.6393 17.9959 56.628C17.8522 56.6128 17.7069 56.626 17.5682 56.667C17.4296 56.7079 17.3004 56.7758 17.188 56.8667C17.0757 56.9576 16.9823 57.0698 16.9133 57.1968C16.8443 57.3239 16.801 57.4632 16.7859 57.607C16.7707 57.7507 16.7839 57.8961 16.8249 58.0347C16.8658 58.1733 16.9337 58.3025 17.0247 58.4149C17.1156 58.5273 17.2278 58.6206 17.3548 58.6896C17.4818 58.7586 17.6212 58.8019 17.7649 58.817C18.0323 58.834 18.3005 58.834 18.5679 58.817C19.5027 58.8293 20.4304 58.6534 21.2959 58.3V65.208L11.3299 70.917C10.738 71.2007 10.2346 71.6405 9.87411 72.189C9.51358 72.7376 9.30953 73.3741 9.28394 74.03V87.23C9.35661 88.0375 9.64099 88.8115 10.1084 89.4739C10.5757 90.1363 11.2096 90.6638 11.9459 91.003L42.5699 108.636C44.2325 109.544 46.0988 110.013 47.9929 110C49.4935 110.04 50.9788 109.691 52.3049 108.988L98.6699 82.214C99.2619 81.9303 99.7652 81.4905 100.126 80.942C100.486 80.3934 100.69 79.7569 100.716 79.101V66C100.651 65.1848 100.37 64.4016 99.902 63.7309C99.4342 63.0601 98.7964 62.5259 98.0539 62.183ZM97.5699 80.3L51.2049 107.085C49.3349 108.185 45.8809 107.998 43.6699 106.722L13.0459 89.1C12.0669 88.539 11.4839 87.835 11.4839 87.23V74.03C11.4839 73.447 12.0669 73.018 12.4299 72.82L58.7949 46.046C60.6649 44.946 64.1189 45.133 66.3299 46.409L96.9539 64.086C97.9329 64.647 98.5159 65.351 98.5159 65.956C98.5159 66.561 97.9219 66.968 97.5699 67.166L51.2049 93.94C49.3349 95.04 45.8809 94.853 43.6699 93.577L14.1019 76.505C13.8481 76.3591 13.5468 76.3201 13.2641 76.3964C12.9815 76.4727 12.7408 76.6582 12.5949 76.912C12.4491 77.1658 12.41 77.4672 12.4863 77.7498C12.5627 78.0324 12.7481 78.2731 13.0019 78.419L42.5699 95.48C44.2289 96.398 46.097 96.8717 47.9929 96.855C49.4935 96.8948 50.9788 96.5462 52.3049 95.843L98.5049 69.157V79.057C98.5159 79.684 97.8999 80.113 97.5699 80.3ZM68.5741 92.9169L69.6961 92.2679V93.159L71.5111 92.1139V91.223L72.6331 90.5739V87.1199L68.5741 89.463V92.9169ZM75.647 88.836L74.525 89.4849V86.0199L78.584 83.688V87.142L77.462 87.7909V88.682L75.647 89.727V88.836ZM80.4759 86.0419L81.5979 85.4039V86.2949L83.4019 85.2499V84.359L84.5239 83.7099V80.2449L80.4759 82.588V86.0419ZM87.5381 81.961L86.4161 82.6099V79.156L90.4751 76.813V80.267L89.3531 80.9159V81.807L87.5381 82.852V81.961ZM92.367 79.178L93.489 78.529V79.42L95.304 78.375V77.484L96.426 76.835V73.381L92.367 75.724V79.178ZM54.4308 98.546C54.7061 98.0719 55.0896 97.6696 55.5501 97.372C56.4191 96.866 57.1341 97.273 57.1341 98.274C57.103 98.8227 56.9434 99.3564 56.6683 99.8322C56.3932 100.308 56.0101 100.712 55.5501 101.013C54.6811 101.519 53.9661 101.112 53.9661 100.1C53.9963 99.5526 54.1555 99.0201 54.4308 98.546Z" fill="#003040"/>
</g>
<defs>
<clipPath id="clip0_2216_164">
<rect width="110" height="110" fill="white"/>
</clipPath>
</defs>
</svg>
