<svg width="110" height="110" viewBox="0 0 110 110" fill="none" xmlns="http://www.w3.org/2000/svg">
<path d="M83.6 9.163C83.5663 9.06251 83.5141 8.96922 83.446 8.888V8.811C83.3686 8.72269 83.2798 8.64502 83.182 8.58L79.101 6.49C78.9338 6.39345 78.7441 6.34263 78.551 6.34263C78.3579 6.34263 78.1682 6.39345 78.001 6.49L26.884 36.047C26.7161 36.1439 26.5769 36.2835 26.4803 36.4515C26.3837 36.6196 26.3332 36.8102 26.334 37.004V96.074C26.3336 96.276 26.3888 96.4742 26.4936 96.6469C26.5983 96.8196 26.7486 96.9601 26.928 97.053L30.899 99.121H31.13C31.2213 99.1318 31.3136 99.1318 31.405 99.121C31.4997 99.137 31.5963 99.137 31.691 99.121C31.7238 99.1257 31.7572 99.1257 31.79 99.121L31.955 99.055L53.57 86.614C53.8094 86.4618 53.9808 86.223 54.0483 85.9474C54.1158 85.6718 54.0742 85.3808 53.9322 85.1352C53.7902 84.8896 53.5588 84.7083 53.2864 84.6293C53.0139 84.5502 52.7214 84.5795 52.47 84.711L32.505 96.239V39.71L81.466 11.44V67.969L79.354 69.19V52.8C79.3534 52.611 79.3042 52.4254 79.211 52.261L74.932 44.726C74.932 44.517 74.932 44.286 74.932 44.077C74.932 38.467 72.985 34.254 69.432 32.208C65.879 30.162 61.27 30.58 56.408 33.385C46.816 38.885 39.006 52.459 39.006 63.536C39.006 68.134 40.304 71.797 42.768 74.118C44.582 75.8357 47.0025 76.7652 49.5 76.703H50.171C50.3155 76.6946 50.457 76.6577 50.5873 76.5945C50.7175 76.5313 50.834 76.443 50.9301 76.3347C51.0262 76.2264 51.0999 76.1001 51.1471 75.9633C51.1942 75.8264 51.2139 75.6815 51.205 75.537C51.1882 75.2569 51.0649 74.9937 50.8604 74.8015C50.6559 74.6093 50.3856 74.5025 50.105 74.503C49.0576 74.6112 47.9991 74.4976 46.9984 74.1698C45.9977 73.8419 45.0773 73.3071 44.297 72.6C42.284 70.697 41.228 67.595 41.228 63.613C41.228 53.229 48.543 40.513 57.53 35.365C59.4629 34.1818 61.6421 33.4592 63.899 33.253L66.638 34.661L77.154 53.13V79.409L64.647 86.625V61.963L76.373 55.198C76.6268 55.0521 76.8123 54.8114 76.8886 54.5288C76.9649 54.2462 76.9259 53.9448 76.78 53.691C76.6341 53.4372 76.3934 53.2517 76.1108 53.1754C75.8282 53.0991 75.5268 53.1381 75.273 53.284L63.954 59.884L54.054 42.504C55.9651 40.3678 58.1906 38.5354 60.654 37.07C61.6526 36.4662 62.7059 35.9579 63.8 35.552C63.9485 35.5167 64.088 35.4508 64.2096 35.3587C64.3313 35.2665 64.4324 35.15 64.5066 35.0167C64.5808 34.8833 64.6264 34.736 64.6406 34.584C64.6548 34.4321 64.6372 34.2788 64.5889 34.134C64.5407 33.9892 64.4628 33.8561 64.3603 33.743C64.2578 33.63 64.1328 33.5395 63.9935 33.4773C63.8541 33.4151 63.7033 33.3826 63.5507 33.3819C63.3981 33.3812 63.247 33.4122 63.107 33.473C61.8559 33.8969 60.6508 34.4461 59.51 35.112C56.8827 36.6847 54.5091 38.6467 52.47 40.931L52.338 40.865C52.0795 40.7424 51.7834 40.7253 51.5125 40.8173C51.2416 40.9094 51.0173 41.1034 50.887 41.3581C50.7568 41.6128 50.7309 41.9083 50.8149 42.1818C50.899 42.4553 51.0862 42.6853 51.337 42.823L51.909 43.12L62.447 61.6V86.636L53.812 81.719V70.191C53.8899 67.0945 53.3243 64.0156 52.151 61.149C52.0925 61.0168 52.0085 60.8975 51.9039 60.7977C51.7993 60.698 51.676 60.6199 51.5412 60.5678C51.4063 60.5157 51.2626 60.4907 51.1181 60.4941C50.9736 60.4976 50.8312 60.5295 50.699 60.588C50.5668 60.6465 50.4475 60.7305 50.3477 60.8351C50.248 60.9397 50.1699 61.063 50.1178 61.1978C50.0657 61.3326 50.0406 61.4764 50.0441 61.6209C50.0476 61.7654 50.0795 61.9078 50.138 62.04C51.1875 64.6259 51.6894 67.4013 51.612 70.191V82.357C51.6123 82.5519 51.6644 82.7432 51.763 82.9114C51.8616 83.0796 52.0031 83.2185 52.173 83.314L59.004 87.208L60.72 94.699C60.9246 95.4914 61.4091 96.1831 62.084 96.646V102.531C62.084 102.823 62.1999 103.103 62.4062 103.309C62.6125 103.515 62.8923 103.631 63.184 103.631C63.4757 103.631 63.7555 103.515 63.9618 103.309C64.1681 103.103 64.284 102.823 64.284 102.531V97.691C65.0558 97.8948 65.8507 97.9983 66.649 97.999C67.4784 97.9976 68.3037 97.8828 69.102 97.658V101.2C69.102 101.492 69.2179 101.772 69.4242 101.978C69.6305 102.184 69.9103 102.3 70.202 102.3C70.4937 102.3 70.7735 102.184 70.9798 101.978C71.1861 101.772 71.302 101.492 71.302 101.2V96.58C71.947 96.1249 72.4076 95.4536 72.6 94.688L75.24 83.05L78.804 80.993C78.9719 80.8961 79.1111 80.7565 79.2077 80.5885C79.3043 80.4204 79.3548 80.2298 79.354 80.036V71.731L83.116 69.531C83.2839 69.4341 83.4231 69.2945 83.5197 69.1265C83.6163 68.9584 83.6668 68.7678 83.666 68.574V9.537C83.6826 9.43501 83.6826 9.33099 83.666 9.229C83.6513 9.2007 83.6283 9.17764 83.6 9.163ZM72.303 40.15L69.3 34.771C70.8785 36.1744 71.9367 38.0698 72.303 40.15ZM70.4 94.204C70.234 94.6095 69.9191 94.9362 69.52 95.117C68.617 95.5699 67.6207 95.8057 66.6105 95.8057C65.6003 95.8057 64.604 95.5699 63.701 95.117C63.3018 94.9362 62.987 94.6095 62.821 94.204L61.567 88.704L62.964 89.496C62.964 89.496 62.964 89.496 63.041 89.496H63.129C63.2388 89.5347 63.3537 89.557 63.47 89.562C63.5798 89.5623 63.6884 89.5399 63.789 89.496H63.877C63.877 89.496 63.932 89.496 63.954 89.496L72.6 84.557L70.4 94.204ZM31.372 37.818L30.624 37.4C30.4954 37.3336 30.355 37.2931 30.2108 37.2809C30.0666 37.2687 29.9214 37.285 29.7835 37.3289C29.6456 37.3729 29.5177 37.4435 29.4072 37.5369C29.2966 37.6302 29.2054 37.7444 29.139 37.873C29.0725 38.0016 29.0321 38.142 29.0199 38.2862C29.0077 38.4304 29.024 38.5756 29.0679 38.7135C29.1119 38.8514 29.1825 38.9792 29.2759 39.0898C29.3692 39.2004 29.4834 39.2915 29.612 39.358L30.305 39.721V96.327L28.534 95.403V37.642L78.628 8.723L80.278 9.581L31.372 37.818Z" fill="#003040"/>
</svg>
