<svg width="110" height="110" viewBox="0 0 110 110" fill="none" xmlns="http://www.w3.org/2000/svg">
<path fill-rule="evenodd" clip-rule="evenodd" d="M93.294 16.5673C93.53 16.5951 93.7506 16.6985 93.9229 16.8621C94.0978 17.0286 94.2131 17.2481 94.2508 17.4867C94.2886 17.7252 94.2468 17.9696 94.1319 18.1821L73.9029 56.6821C73.8094 56.8577 73.6699 57.0047 73.4995 57.1073C73.329 57.21 73.1339 57.2645 72.9349 57.265C72.7954 57.2671 72.657 57.2409 72.5279 57.188C72.2759 57.0869 72.0701 56.8962 71.9503 56.6525C71.8305 56.4088 71.8051 56.1294 71.8789 55.8681L77.5769 35.672L72.2639 38.7411C72.0746 38.849 71.8574 38.8983 71.64 38.8826C71.4226 38.8669 71.2148 38.7871 71.0429 38.6531C70.8701 38.519 70.7411 38.3365 70.6726 38.1288C70.604 37.9211 70.5989 37.6977 70.6579 37.4871L77.1039 15.047C77.1822 14.7734 77.3636 14.5408 77.6099 14.3981L88.9399 7.85307C89.1391 7.7353 89.3705 7.68337 89.6009 7.70469C89.8314 7.72602 90.0493 7.81951 90.2235 7.97184C90.3978 8.12416 90.5196 8.32758 90.5715 8.55312C90.6235 8.77867 90.603 9.01486 90.5129 9.22807L85.8929 20.5691L92.6139 16.7081C92.8195 16.5889 93.0581 16.5396 93.294 16.5673ZM80.4369 33.681L76.8509 46.3421L90.4249 20.5581L84.2099 24.1441C84.0124 24.2572 83.7847 24.3064 83.5582 24.2847C83.3316 24.2631 83.1173 24.1716 82.9449 24.0231C82.7698 23.8718 82.6469 23.6693 82.5935 23.4441C82.5402 23.219 82.5592 22.9828 82.6479 22.7691L87.3229 11.3731L79.1499 16.0921L73.5289 35.4851L78.8199 32.4271C79.0097 32.3146 79.229 32.2617 79.4493 32.2754C79.6695 32.2892 79.8806 32.3688 80.0549 32.504C80.2293 32.6393 80.359 32.8239 80.4271 33.0338C80.4952 33.2437 80.4986 33.4692 80.4369 33.681Z" fill="#003040"/>
<path d="M23.7204 29.9852C23.6036 31.207 23.7723 32.4392 24.2133 33.5846C24.6543 34.73 25.3554 35.7572 26.2614 36.5852C26.4675 36.7901 26.7463 36.905 27.0369 36.905C27.3275 36.905 27.6063 36.7901 27.8124 36.5852C27.9155 36.4829 27.9974 36.3613 28.0532 36.2272C28.109 36.0932 28.1378 35.9494 28.1378 35.8042C28.1378 35.659 28.109 35.5152 28.0532 35.3811C27.9974 35.2471 27.9155 35.1255 27.8124 35.0232C27.1365 34.4343 26.6096 33.6937 26.275 32.862C25.9404 32.0302 25.8076 31.1311 25.8874 30.2382C26.1624 28.2362 27.7354 26.3112 30.2874 24.8262C36.7224 21.1302 47.2384 21.1522 53.7284 24.8262C56.6764 26.5092 58.2934 28.6872 58.2934 30.9422C58.2934 33.1972 56.6984 35.3422 53.8054 36.9812C49.4054 39.4672 43.0694 40.3472 37.1184 39.2802C36.974 39.2542 36.8258 39.2569 36.6824 39.2881C36.539 39.3194 36.4031 39.3786 36.2826 39.4624C36.1621 39.5461 36.0592 39.6528 35.9799 39.7763C35.9006 39.8998 35.8464 40.0378 35.8204 40.1822C35.7944 40.3267 35.7971 40.4748 35.8284 40.6182C35.8596 40.7616 35.9188 40.8975 36.0026 41.018C36.0864 41.1386 36.193 41.2414 36.3165 41.3207C36.4401 41.4 36.578 41.4542 36.7224 41.4802C38.5164 41.7968 40.3347 41.9551 42.1564 41.9532C46.6047 42.0624 51.0076 41.0364 54.9494 38.9722C58.5574 36.9042 60.5374 34.0882 60.5374 31.0302C60.5374 27.9722 58.5244 25.1012 54.8724 23.0002C47.7774 18.9412 36.2824 18.9192 29.2314 23.0002C26.0524 24.7932 24.0834 27.2902 23.7204 29.9852Z" fill="#003040"/>
<path fill-rule="evenodd" clip-rule="evenodd" d="M58.1392 48.6631C57.972 48.5666 57.7823 48.5158 57.5892 48.5158C57.3961 48.5158 57.2064 48.5666 57.0392 48.6631C53.7817 50.2378 50.2757 51.2353 46.6772 51.6111C46.4089 51.6435 46.1619 51.7736 45.9834 51.9765C45.8049 52.1794 45.7073 52.4409 45.7092 52.7111V94.0162C45.7092 94.3079 45.8251 94.5877 46.0314 94.794C46.2377 95.0003 46.5175 95.1162 46.8092 95.1162H46.9302C50.7868 94.7179 54.5435 93.6456 58.0292 91.9482C58.2106 91.8568 58.3632 91.7169 58.47 91.5441C58.5767 91.3713 58.6336 91.1723 58.6342 90.9692V49.5982C58.6369 49.4133 58.593 49.2307 58.5065 49.0672C58.42 48.9038 58.2936 48.7648 58.1392 48.6631ZM56.4672 70.2451C53.7614 71.4836 50.8896 72.3211 47.9422 72.7311V64.4151C50.8701 64.0145 53.7349 63.242 56.4672 62.1162V70.2451ZM47.9422 74.9752C50.8722 74.585 53.7383 73.812 56.4672 72.6761V79.6392C53.7577 80.8677 50.8873 81.7048 47.9422 82.1252V74.9752ZM47.9422 53.6241C50.8712 53.2288 53.7366 52.4561 56.4672 51.3252V59.6852C53.7596 60.9187 50.8885 61.7559 47.9422 62.1712V53.6241ZM47.9422 92.7072V84.3692C50.8707 83.9773 53.7361 83.2083 56.4672 82.0811V90.2432C53.759 91.4707 50.8877 92.3006 47.9422 92.7072Z" fill="#003040"/>
<path fill-rule="evenodd" clip-rule="evenodd" d="M59.1622 22.1752C59.037 22.0956 58.897 22.0422 58.7506 22.0181C58.6042 21.994 58.4544 21.9998 58.3103 22.0351C58.1663 22.0704 58.0308 22.1345 57.9121 22.2235C57.7934 22.3125 57.6939 22.4246 57.6197 22.553C57.5455 22.6815 57.498 22.8236 57.4801 22.9709C57.4622 23.1182 57.4743 23.2675 57.5156 23.41C57.5569 23.5525 57.6267 23.6851 57.7206 23.8C57.8145 23.9148 57.9307 24.0094 58.0622 24.0782C62.1212 26.4212 64.3652 29.4572 64.4092 32.6362V32.8342C64.4092 35.9802 62.1432 38.9722 58.1612 41.2712C49.3612 46.3422 35.0612 46.3202 26.1622 41.2052C22.0702 38.8402 19.8042 35.7712 19.8042 32.5482C19.8042 29.3252 22.0042 26.3332 26.0632 24.0012C26.3026 23.849 26.474 23.6101 26.5415 23.3346C26.609 23.059 26.5674 22.768 26.4254 22.5224C26.2834 22.2768 26.052 22.0955 25.7795 22.0164C25.5071 21.9374 25.2146 21.9667 24.9632 22.0982C20.2222 24.8372 17.6042 28.5442 17.6042 32.5482V88.2192C17.5987 88.2594 17.5987 88.3 17.6042 88.3402C17.6922 92.3002 20.3322 95.9742 25.0512 98.6912C30.337 101.508 36.2559 102.924 42.2442 102.805C48.1617 102.928 54.0122 101.534 59.2392 98.7572C63.9802 96.0182 66.5872 92.3112 66.5872 88.3182C66.5925 88.2854 66.5925 88.252 66.5872 88.2192V32.7352C66.6202 28.6982 63.9692 24.9692 59.1622 22.1752ZM64.4092 41.7442V88.0982C64.4043 88.1347 64.4043 88.1717 64.4092 88.2082C64.4092 91.4202 62.2092 94.4782 58.1612 96.8322C49.3612 101.903 35.0612 101.881 26.1732 96.7662C22.1142 94.4232 19.8592 91.3762 19.8262 88.1862V38.5982C21.2628 40.4262 23.0505 41.9484 25.0842 43.0752C30.3729 45.883 36.2905 47.2951 42.2772 47.1782C48.1983 47.3015 54.0526 45.908 59.2832 43.1302C61.2734 42.0186 63.0232 40.5231 64.4312 38.7302L64.4092 41.7442Z" fill="#003040"/>
<path fill-rule="evenodd" clip-rule="evenodd" d="M42.0742 23.0788C43.9616 23.0788 45.8221 23.5268 47.5027 24.3861C48.2384 24.7152 48.8697 25.2402 49.3275 25.9036C49.7853 26.567 50.052 27.3435 50.0987 28.1482V32.1631C50.06 32.9669 49.8016 33.7448 49.3517 34.4119C48.9017 35.0791 48.2774 35.6101 47.5467 35.9471C45.8685 36.8143 44.0071 37.2668 42.1182 37.2668C40.2292 37.2668 38.3678 36.8143 36.6897 35.9471C35.9633 35.6082 35.3401 35.0822 34.8839 34.4231C34.4277 33.764 34.155 32.9954 34.0937 32.1962V27.8951C34.1992 27.146 34.4871 26.4343 34.9321 25.8224C35.3771 25.2106 35.9655 24.7174 36.6457 24.3861C38.3262 23.5268 40.1867 23.0788 42.0742 23.0788ZM47.5797 31.8881C45.527 32.9565 43.2014 33.3856 40.9027 33.1201H40.8917C40.5999 33.0924 40.3311 32.95 40.1444 32.7241C39.9578 32.4982 39.8684 32.2074 39.8962 31.9157C39.9239 31.6239 40.0663 31.3552 40.2922 31.1685C40.5181 30.9818 40.8089 30.8924 41.1007 30.9201C42.9452 31.1362 44.8124 30.8033 46.4687 29.9631C47.3927 29.4351 47.9207 28.7752 47.9207 28.1372C47.9207 27.4992 47.3817 26.8172 46.4357 26.2782C45.0855 25.6207 43.6034 25.2791 42.1017 25.2791C40.5999 25.2791 39.1179 25.6207 37.7677 26.2782C37.4114 26.4336 37.0958 26.6694 36.8459 26.9671C36.5959 27.2648 36.4182 27.6163 36.3267 27.9942V32.1741C36.3377 32.8121 36.8767 33.4941 37.8227 34.0331C39.1671 34.7034 40.6489 35.0522 42.1512 35.0522C43.6534 35.0522 45.1352 34.7034 46.4797 34.0331C47.4147 33.5051 47.9317 32.8231 47.9317 32.1741V31.6682L47.5797 31.8881Z" fill="#003040"/>
</svg>
